<mxfile host="app.diagrams.net" agent="Mozilla/5.0 (Windows NT 10.0; Win64; x64) AppleWebKit/537.36 (KHTML, like Gecko) Chrome/136.0.0.0 Safari/537.36" version="27.0.9">
  <diagram name="Страница — 1" id="RF5MCiim8KqxoUMHWH90">
    <mxGraphModel dx="1251" dy="660" grid="1" gridSize="10" guides="1" tooltips="1" connect="1" arrows="1" fold="1" page="1" pageScale="1" pageWidth="827" pageHeight="1169" math="0" shadow="0">
      <root>
        <mxCell id="0" />
        <mxCell id="1" parent="0" />
        <mxCell id="rSCFhkNv_R6OZtYW9Dr3-8" style="edgeStyle=orthogonalEdgeStyle;rounded=0;orthogonalLoop=1;jettySize=auto;html=1;exitX=1;exitY=0.5;exitDx=0;exitDy=0;entryX=0;entryY=0.5;entryDx=0;entryDy=0;" edge="1" parent="1" source="rSCFhkNv_R6OZtYW9Dr3-1" target="rSCFhkNv_R6OZtYW9Dr3-2">
          <mxGeometry relative="1" as="geometry" />
        </mxCell>
        <mxCell id="rSCFhkNv_R6OZtYW9Dr3-1" value="Модуль входных данных" style="rounded=0;whiteSpace=wrap;html=1;" vertex="1" parent="1">
          <mxGeometry x="60" y="270" width="120" height="60" as="geometry" />
        </mxCell>
        <mxCell id="rSCFhkNv_R6OZtYW9Dr3-9" style="edgeStyle=orthogonalEdgeStyle;rounded=0;orthogonalLoop=1;jettySize=auto;html=1;exitX=0.5;exitY=1;exitDx=0;exitDy=0;entryX=0.5;entryY=0;entryDx=0;entryDy=0;" edge="1" parent="1" source="rSCFhkNv_R6OZtYW9Dr3-2" target="rSCFhkNv_R6OZtYW9Dr3-3">
          <mxGeometry relative="1" as="geometry" />
        </mxCell>
        <mxCell id="rSCFhkNv_R6OZtYW9Dr3-10" style="edgeStyle=orthogonalEdgeStyle;rounded=0;orthogonalLoop=1;jettySize=auto;html=1;exitX=1;exitY=0.5;exitDx=0;exitDy=0;" edge="1" parent="1" source="rSCFhkNv_R6OZtYW9Dr3-2" target="rSCFhkNv_R6OZtYW9Dr3-7">
          <mxGeometry relative="1" as="geometry" />
        </mxCell>
        <mxCell id="rSCFhkNv_R6OZtYW9Dr3-14" style="edgeStyle=orthogonalEdgeStyle;rounded=0;orthogonalLoop=1;jettySize=auto;html=1;exitX=0.75;exitY=0;exitDx=0;exitDy=0;entryX=0.5;entryY=1;entryDx=0;entryDy=0;" edge="1" parent="1" source="rSCFhkNv_R6OZtYW9Dr3-2" target="rSCFhkNv_R6OZtYW9Dr3-6">
          <mxGeometry relative="1" as="geometry" />
        </mxCell>
        <mxCell id="rSCFhkNv_R6OZtYW9Dr3-15" style="edgeStyle=orthogonalEdgeStyle;rounded=0;orthogonalLoop=1;jettySize=auto;html=1;exitX=0.25;exitY=0;exitDx=0;exitDy=0;entryX=0.5;entryY=1;entryDx=0;entryDy=0;" edge="1" parent="1" source="rSCFhkNv_R6OZtYW9Dr3-2" target="rSCFhkNv_R6OZtYW9Dr3-5">
          <mxGeometry relative="1" as="geometry" />
        </mxCell>
        <mxCell id="rSCFhkNv_R6OZtYW9Dr3-16" style="edgeStyle=orthogonalEdgeStyle;rounded=0;orthogonalLoop=1;jettySize=auto;html=1;exitX=0;exitY=0.25;exitDx=0;exitDy=0;entryX=0.5;entryY=0;entryDx=0;entryDy=0;" edge="1" parent="1" source="rSCFhkNv_R6OZtYW9Dr3-2" target="rSCFhkNv_R6OZtYW9Dr3-4">
          <mxGeometry relative="1" as="geometry" />
        </mxCell>
        <mxCell id="rSCFhkNv_R6OZtYW9Dr3-2" value="Управляющий модуль" style="rounded=0;whiteSpace=wrap;html=1;" vertex="1" parent="1">
          <mxGeometry x="300" y="270" width="120" height="60" as="geometry" />
        </mxCell>
        <mxCell id="rSCFhkNv_R6OZtYW9Dr3-3" value="База данных" style="rounded=0;whiteSpace=wrap;html=1;" vertex="1" parent="1">
          <mxGeometry x="300" y="370" width="120" height="60" as="geometry" />
        </mxCell>
        <mxCell id="rSCFhkNv_R6OZtYW9Dr3-4" value="Модуль лексического анализа" style="rounded=0;whiteSpace=wrap;html=1;" vertex="1" parent="1">
          <mxGeometry x="170" y="440" width="120" height="60" as="geometry" />
        </mxCell>
        <mxCell id="rSCFhkNv_R6OZtYW9Dr3-5" value="Модуль синтаксического анализа" style="rounded=0;whiteSpace=wrap;html=1;" vertex="1" parent="1">
          <mxGeometry x="170" y="150" width="120" height="60" as="geometry" />
        </mxCell>
        <mxCell id="rSCFhkNv_R6OZtYW9Dr3-6" value="Модуль семантического анализа" style="rounded=0;whiteSpace=wrap;html=1;" vertex="1" parent="1">
          <mxGeometry x="440" y="150" width="120" height="60" as="geometry" />
        </mxCell>
        <mxCell id="rSCFhkNv_R6OZtYW9Dr3-7" value="Модуль обратной связи" style="rounded=0;whiteSpace=wrap;html=1;" vertex="1" parent="1">
          <mxGeometry x="500" y="270" width="120" height="60" as="geometry" />
        </mxCell>
      </root>
    </mxGraphModel>
  </diagram>
</mxfile>
